Coordinates
version=1
nRows=5
nColumns=40
inDegrees=yes

Units are S.I. units (second, meters, Newtons, ...)
If the header above contains a line with 'inDegrees', this indicates whether rotational values are in degrees (yes) or radians (no).

endheader
time	pelvis_tilt	pelvis_list	pelvis_rotation	pelvis_tx	pelvis_ty	pelvis_tz	hip_flexion_r	hip_adduction_r	hip_rotation_r	knee_angle_r	knee_angle_r_beta	ankle_angle_r	subtalar_angle_r	mtp_angle_r	hip_flexion_l	hip_adduction_l	hip_rotation_l	knee_angle_l	knee_angle_l_beta	ankle_angle_l	subtalar_angle_l	mtp_angle_l	lumbar_extension	lumbar_bending	lumbar_rotation	arm_flex_r	arm_add_r	arm_rot_r	elbow_flex_r	pro_sup_r	wrist_flex_r	wrist_dev_r	arm_flex_l	arm_add_l	arm_rot_l	elbow_flex_l	pro_sup_l	wrist_flex_l	wrist_dev_l
      1.60000000	     -1.15861806	     -0.85289400	     -0.25708630	     -0.28497764	      1.01403703	     -0.72907052	      8.90565675	      6.20068910	     -1.56409667	     14.81106879	      0.25850192	      0.59674463	      0.00000000	      0.00000000	     11.98170194	     -1.05285774	      2.42101481	     83.83763920	      1.46324284	     -8.30914534	      0.00000000	      0.00000000	    -19.00564114	      3.21965874	      4.45147194	     81.17406880	    -17.15429823	     18.12351051	     51.57136019	     82.97922584	      0.00000000	      0.00000000	     87.08107222	     -8.44370219	     29.14328018	     43.02002988	     86.86826249	      0.00000000	      0.00000000
      1.60500000	     -1.24803651	     -0.84292200	     -0.28135209	     -0.28528102	      1.01374327	     -0.72917570	      9.12446418	      6.18282121	     -1.54131415	     15.01331936	      0.26203185	      0.64364088	      0.00000000	      0.00000000	     11.99957246	     -1.03478967	      2.41988660	     83.84540552	      1.46337839	     -8.20414781	      0.00000000	      0.00000000	    -18.98941831	      3.23001941	      4.43373537	     81.31110567	    -17.04277470	     18.01553705	     51.35516347	     84.10557071	      0.00000000	      0.00000000	     87.00091802	     -8.27456231	     28.44306249	     42.93102437	     86.90121021	      0.00000000	      0.00000000
      1.61000000	     -1.34232772	     -0.82922834	     -0.30474825	     -0.28561694	      1.01343156	     -0.72925407	      9.38500886	      6.16244679	     -1.51294650	     15.29361955	      0.26692402	      0.74657837	      0.00000000	      0.00000000	     12.02914948	     -1.03394760	      2.40523468	     83.84565460	      1.46338274	     -8.21581857	      0.00000000	      0.00000000	    -18.97891753	      3.21030839	      4.43597485	     81.38017021	    -17.06609658	     18.06940589	     51.37953228	     84.18190898	      0.00000000	      0.00000000	     87.05130577	     -8.30679735	     28.49473196	     42.96757210	     86.87128842	      0.00000000	      0.00000000
      1.61500000	     -1.44257908	     -0.79930588	     -0.35983342	     -0.28599288	      1.01306578	     -0.72927918	      9.67502491	      6.12919826	     -1.41609468	     15.61866732	      0.27259717	      0.87528427	      0.00000000	      0.00000000	     12.06620601	     -0.98246548	      2.41111985	     83.85216878	      1.46349643	     -8.20551731	      0.00000000	      0.00000000	    -18.96124647	      3.17299252	      4.42690481	     81.47985182	    -16.97705546	     18.08672160	     51.28716127	     83.21163536	      0.00000000	      0.00000000	     87.10156757	     -8.36671107	     28.47639244	     42.97574334	     87.04709364	      0.00000000	      0.00000000
      1.62000000	     -1.54070749	     -0.77439123	     -0.36858772	     -0.28630744	      1.01269484	     -0.72938992	      9.96353135	      6.08410062	     -1.46131903	     15.95948046	      0.27854548	      1.07086753	      0.00000000	      0.00000000	     12.10272256	     -0.94896002	      2.43044255	     83.85504687	      1.46354666	     -8.26488638	      0.00000000	      0.00000000	    -18.93283962	      3.14567998	      4.41975983	     81.53790778	    -16.99050470	     18.09246213	     51.27994894	     83.21244702	      0.00000000	      0.00000000	     87.12776920	     -8.30546265	     28.29641314	     42.93421411	     87.07242257	      0.00000000	      0.00000000
